<?xml version="1.0" standalone="no"?>
<!DOCTYPE svg PUBLIC "-//W3C//DTD SVG 20010904//EN"
 "http://www.w3.org/TR/2001/REC-SVG-20010904/DTD/svg10.dtd">
<svg version="1.0" xmlns="http://www.w3.org/2000/svg"
 width="8pt" height="8pt" viewBox="0 0 512.000000 512.000000"
 preserveAspectRatio="xMidYMid meet">

<g transform="translate(0.000000,512.000000) scale(0.100000,-0.100000)"
fill="#000000" stroke="#ffff00">
<path d="M2528 4508 c-517 -568 -953 -1284 -1177 -1933 -79 -226 -99 -315
-112 -491 -54 -699 237 -1217 819 -1457 191 -78 445 -125 612 -114 109 8 323
62 460 116 388 152 631 419 720 794 11 45 25 139 31 208 18 191 -10 433 -71
634 -65 212 -467 1042 -805 1661 -143 263 -379 674 -386 674 -4 0 -45 -42 -91
-92z m-95 -915 c128 -356 207 -637 207 -738 0 -183 -78 -327 -211 -394 -125
-63 -292 -68 -409 -14 -240 111 -329 331 -246 608 34 113 186 340 332 494 72
77 241 230 254 231 3 0 36 -84 73 -187z"/>
</g>
</svg>
