<?xml version="1.0" standalone="no"?>
<!DOCTYPE svg PUBLIC "-//W3C//DTD SVG 20010904//EN"
 "http://www.w3.org/TR/2001/REC-SVG-20010904/DTD/svg10.dtd">
<svg version="1.0" xmlns="http://www.w3.org/2000/svg"
 width="32pt" height="32pt" viewBox="0 0 512.000000 512.000000"
 preserveAspectRatio="xMidYMid meet">

<g transform="translate(0.000000,512.000000) scale(0.100000,-0.100000)"
fill="#000000" stroke="none">
<path d="M2250 4684 c-19 -2 -91 -9 -160 -15 -512 -44 -995 -212 -1060 -369
-53 -127 162 -270 555 -370 295 -75 565 -104 980 -104 417 0 690 31 995 110
283 74 473 174 527 277 98 191 -461 415 -1162 467 -127 9 -589 12 -675 4z
m-230 -364 c43 -43 34 -110 -20 -137 -38 -19 -422 -18 -459 2 -49 25 -57 90
-16 130 l24 25 226 0 c211 0 226 -1 245 -20z"/>
<path d="M1128 3363 c-4 -610 1 -567 -77 -720 -17 -34 -31 -73 -31 -85 0 -60
90 -143 224 -208 86 -42 271 -106 335 -116 38 -6 38 -6 46 32 12 68 71 200
128 287 129 198 333 345 568 409 122 33 356 33 478 0 235 -64 439 -210 568
-409 57 -87 116 -219 128 -287 l8 -38 41 6 c64 11 242 73 332 116 134 65 224
148 224 208 0 12 -14 51 -31 85 -78 153 -73 110 -77 720 -2 301 -5 547 -8 547
-2 0 -26 -11 -53 -25 -184 -93 -559 -179 -946 -217 -168 -16 -682 -16 -850 0
-369 37 -694 108 -900 198 -44 20 -85 38 -92 41 -9 4 -13 -121 -15 -544z"/>
<path d="M2395 2803 c-399 -85 -678 -473 -625 -869 44 -332 271 -595 590 -681
101 -27 311 -25 415 5 343 99 579 412 578 767 0 167 -39 298 -127 435 -175
270 -516 411 -831 343z m212 -208 c44 -31 239 -415 300 -592 20 -58 27 -98 27
-159 1 -73 -2 -87 -37 -156 -154 -313 -606 -271 -702 66 -23 78 -16 155 25
270 64 180 256 556 294 575 31 15 69 13 93 -4z"/>
<path d="M2486 2208 c-36 -73 -79 -169 -97 -213 -57 -142 -41 -245 48 -309
129 -90 304 -16 329 140 4 29 -1 61 -20 119 -30 90 -175 395 -188 395 -4 0
-37 -60 -72 -132z"/>
<path d="M1130 1698 c0 -576 -2 -590 -69 -734 -23 -48 -41 -95 -41 -106 0
-114 275 -260 640 -342 506 -112 1222 -117 1745 -11 304 61 541 158 642 261
59 61 63 94 22 175 -78 155 -73 111 -77 722 -2 301 -4 547 -6 547 -2 0 -36
-15 -77 -34 -78 -36 -227 -85 -320 -107 l-57 -13 -7 -86 c-28 -365 -235 -669
-559 -821 -126 -59 -219 -80 -371 -86 -105 -4 -148 -1 -227 15 -229 48 -439
179 -577 362 -114 152 -181 331 -196 526 l-7 91 -77 18 c-94 22 -259 79 -323
111 -26 13 -50 24 -53 24 -3 0 -5 -231 -5 -512z"/>
</g>
</svg>
