<?xml version="1.0" standalone="no"?>
<!DOCTYPE svg PUBLIC "-//W3C//DTD SVG 20010904//EN"
 "http://www.w3.org/TR/2001/REC-SVG-20010904/DTD/svg10.dtd">
<svg version="1.0" xmlns="http://www.w3.org/2000/svg"
 width="32pt" height="32pt" viewBox="0 0 512.000000 512.000000"
 preserveAspectRatio="xMidYMid meet">

<g transform="translate(0.000000,512.000000) scale(0.100000,-0.100000)"
fill="#8d5a99" stroke="none">
<path d="M1415 5102 c-256 -89 -272 -442 -26 -556 l46 -21 1125 0 1125 0 46
21 c60 28 125 93 152 153 30 64 30 178 0 242 -27 60 -92 125 -152 153 l-46 21
-1110 2 c-1032 2 -1113 1 -1160 -15z"/>
<path d="M1510 3815 l0 -406 -54 -77 c-107 -153 -183 -330 -223 -522 -24 -117
-24 -363 0 -480 40 -192 116 -369 223 -522 l54 -77 0 -416 0 -415 1050 0 1050
0 0 415 0 416 54 77 c107 153 183 330 223 522 24 117 24 363 0 480 -40 192
-116 369 -223 522 l-54 77 0 406 0 405 -1050 0 -1050 0 0 -405z m1300 -228
c52 -14 122 -37 155 -51 65 -29 215 -116 215 -126 0 -3 -96 -101 -214 -219
l-214 -213 -53 18 c-36 13 -82 19 -139 19 -57 0 -103 -6 -139 -19 l-53 -18
-214 213 c-118 118 -214 216 -214 219 0 9 150 97 211 124 201 88 448 108 659
53z m-871 -611 l213 -214 -18 -53 c-25 -73 -25 -205 0 -278 l18 -53 -213 -214
c-118 -118 -216 -214 -219 -214 -11 0 -100 156 -130 227 -55 131 -74 232 -74
393 0 161 19 262 74 393 30 71 119 227 130 227 3 0 101 -96 219 -214z m1514
136 c60 -100 101 -197 129 -308 18 -72 22 -118 22 -234 0 -161 -19 -262 -74
-393 -30 -71 -119 -227 -130 -227 -3 0 -101 96 -219 214 l-213 214 18 53 c13
36 19 82 19 139 0 57 -6 103 -19 139 l-18 53 213 214 c118 118 216 214 219
214 4 0 27 -35 53 -78z m-988 -979 c70 -18 164 -13 239 13 l48 17 214 -214
c118 -118 214 -216 214 -219 0 -11 -156 -100 -227 -130 -129 -54 -232 -74
-388 -75 -155 0 -243 15 -376 66 -63 24 -226 113 -248 134 -3 3 91 102 209
221 171 171 219 214 235 209 11 -3 47 -13 80 -22z"/>
<path d="M1415 582 c-256 -89 -272 -442 -26 -556 l46 -21 1125 0 1125 0 46 21
c60 28 125 93 152 153 30 64 30 178 0 242 -27 60 -92 125 -152 153 l-46 21
-1110 2 c-1032 2 -1113 1 -1160 -15z"/>
</g>
</svg>
