<?xml version="1.0" standalone="no"?>
<!DOCTYPE svg PUBLIC "-//W3C//DTD SVG 20010904//EN"
 "http://www.w3.org/TR/2001/REC-SVG-20010904/DTD/svg10.dtd">
<svg version="1.0" xmlns="http://www.w3.org/2000/svg"
 width="16pt" height="16pt" viewBox="0 0 512.000000 512.000000"
 preserveAspectRatio="xMidYMid meet">

<g transform="translate(0.000000,512.000000) scale(0.100000,-0.100000)"
fill="#474b71" stroke="none">
<path d="M1201 4200 c-118 -43 -207 -123 -264 -239 l-32 -66 0 -1330 0 -1330
22 -55 c46 -111 142 -207 253 -253 l55 -22 1325 0 1325 0 55 22 c111 46 207
142 253 253 l22 55 0 1040 0 1040 -32 68 c-62 131 -183 227 -321 256 -29 6
-147 11 -261 11 l-209 0 -4 118 c-4 106 -7 124 -35 185 -18 37 -45 83 -60 104
-43 56 -137 120 -210 143 -63 19 -91 20 -947 20 -844 -1 -883 -2 -935 -20z
m1788 -386 c21 -27 21 -28 21 -1254 0 -1226 0 -1227 -21 -1254 -20 -26 -21
-26 -160 -26 l-139 0 0 174 c0 201 -8 257 -52 346 -58 120 -185 215 -317 240
-70 13 -283 13 -352 0 -177 -34 -320 -173 -358 -348 -6 -29 -11 -134 -11 -232
l0 -180 -140 0 c-127 0 -142 2 -160 20 -20 20 -20 33 -20 1260 0 1227 0 1240
20 1260 20 20 33 20 844 20 l825 0 20 -26z m835 -576 c14 -20 16 -129 16 -970
0 -935 0 -948 -20 -968 -19 -19 -33 -20 -225 -20 l-205 0 0 990 0 990 209 0
c206 0 210 0 225 -22z m-1542 -1595 c16 -14 18 -34 18 -190 l0 -173 -161 0
-160 0 3 176 c3 160 5 177 22 190 30 22 253 20 278 -3z"/>
<path d="M1705 3456 c-5 -2 -22 -7 -37 -10 -37 -8 -98 -63 -114 -103 -18 -41
-18 -115 0 -156 17 -43 76 -93 123 -106 52 -15 187 -14 237 1 74 23 136 109
136 190 0 13 -12 48 -26 76 -40 80 -91 106 -214 109 -52 1 -99 1 -105 -1z"/>
<path d="M2380 3448 c-79 -22 -140 -103 -140 -184 1 -82 61 -162 138 -184 20
-5 73 -10 117 -10 96 0 144 12 185 47 120 100 77 290 -75 332 -49 13 -177 13
-225 -1z"/>
<path d="M1705 2816 c-5 -2 -22 -7 -37 -10 -37 -8 -98 -63 -114 -103 -18 -41
-18 -115 0 -156 17 -43 76 -93 123 -106 52 -15 187 -14 237 1 74 23 136 109
136 190 0 13 -12 48 -26 76 -40 80 -91 106 -214 109 -52 1 -99 1 -105 -1z"/>
<path d="M2380 2808 c-79 -22 -140 -103 -140 -184 1 -82 61 -162 138 -184 48
-13 186 -13 234 0 185 52 180 318 -7 369 -49 13 -177 13 -225 -1z"/>
</g>
</svg>
