<?xml version="1.0" standalone="no"?>
<!DOCTYPE svg PUBLIC "-//W3C//DTD SVG 20010904//EN"
 "http://www.w3.org/TR/2001/REC-SVG-20010904/DTD/svg10.dtd">
<svg version="1.0" xmlns="http://www.w3.org/2000/svg"
 width="16pt" height="16pt" viewBox="0 0 512.000000 512.000000"
 preserveAspectRatio="xMidYMid meet">

<g transform="translate(0.000000,512.000000) scale(0.100000,-0.100000)"
fill="#000000" stroke="none">
<path d="M1220 3775 l0 -85 195 0 195 0 0 63 c0 116 16 107 -201 107 l-189 0
0 -85z"/>
<path d="M1210 3525 l0 -85 205 0 205 0 0 39 c0 21 -3 59 -6 85 l-7 46 -198 0
-199 0 0 -85z"/>
<path d="M1200 3300 l0 -60 216 0 217 0 -7 31 c-3 17 -6 44 -6 60 l0 29 -210
0 -210 0 0 -60z"/>
<path d="M1190 3123 c0 -21 -18 -420 -40 -888 -22 -467 -40 -878 -40 -912 l0
-63 295 0 295 0 -5 97 c-3 54 -17 413 -30 798 -14 385 -27 769 -31 853 l-6
152 -219 0 -219 0 0 -37z"/>
<path d="M2776 2889 c-228 -115 -325 -159 -340 -154 -12 3 -75 73 -141 155
-66 82 -124 149 -129 150 -5 0 -108 -57 -228 -127 l-219 -128 6 -85 c3 -47 14
-357 25 -690 11 -333 23 -638 26 -677 l6 -73 334 0 334 0 0 408 c0 304 3 411
12 420 9 9 100 12 349 12 338 0 338 0 353 -22 14 -19 16 -76 16 -420 l0 -398
420 0 420 0 0 886 c0 487 -3 883 -7 881 -5 -2 -122 -68 -260 -146 -141 -80
-261 -141 -272 -139 -11 2 -99 71 -196 153 -97 83 -180 151 -183 152 -4 1
-151 -70 -326 -158z"/>
<path d="M2530 1640 l0 -380 285 0 285 0 -2 378 -3 377 -282 3 -283 2 0 -380z"/>
</g>
</svg>
