<?xml version="1.0" standalone="no"?>
<!DOCTYPE svg PUBLIC "-//W3C//DTD SVG 20010904//EN"
 "http://www.w3.org/TR/2001/REC-SVG-20010904/DTD/svg10.dtd">
<svg version="1.0" xmlns="http://www.w3.org/2000/svg"
 width="24pt" height="24pt" viewBox="0 0 512.000000 512.000000"
 preserveAspectRatio="xMidYMid meet">

<g transform="translate(0.000000,512.000000) scale(0.100000,-0.100000)"
fill="#00ff00" stroke="none">
<path d="M355 5106 c-150 -36 -272 -162 -304 -314 -16 -75 -16 -4389 0 -4464
34 -159 164 -287 324 -318 44 -8 475 -10 1580 -8 l1520 3 53 22 c114 47 196
131 244 252 22 55 22 66 28 614 l5 559 28 -22 c15 -12 39 -43 55 -68 l27 -47
6 -275 c5 -245 8 -282 27 -341 55 -168 198 -312 370 -371 96 -33 268 -33 364
0 172 59 308 197 369 372 17 51 23 88 23 170 1 100 -16 188 -332 1743 -261
1285 -338 1650 -358 1689 -57 113 -151 180 -279 200 l-76 13 -14 48 c-31 105
-66 135 -166 144 l-57 6 -4 51 c-13 160 -159 314 -327 346 -83 16 -3041 12
-3106 -4z m2873 -502 c49 -20 90 -60 113 -109 18 -38 19 -96 19 -1355 0 -1258
-1 -1317 -19 -1356 -25 -54 -83 -101 -143 -114 -71 -15 -2488 -14 -2560 1 -76
16 -141 82 -157 159 -8 40 -11 409 -9 1345 l3 1290 22 40 c26 49 57 79 103 99
31 13 194 15 1313 16 1133 0 1282 -2 1315 -16z m1002 -1181 c0 -3 113 -565
252 -1247 166 -818 252 -1261 252 -1301 -1 -167 -174 -282 -324 -214 -56 25
-95 62 -123 114 -20 37 -22 60 -28 315 -5 210 -10 286 -23 323 -58 178 -206
332 -371 387 l-65 22 0 804 0 804 215 0 c118 0 215 -3 215 -7z"/>
<path d="M2704 4322 c-6 -4 -30 -45 -53 -91 -145 -292 -398 -472 -821 -585
-153 -41 -233 -77 -303 -135 -218 -181 -291 -487 -186 -775 16 -44 26 -83 22
-86 -5 -4 -53 -36 -108 -73 -184 -121 -318 -264 -395 -420 -45 -91 -80 -217
-80 -285 l0 -45 82 114 c108 149 276 317 397 398 51 34 186 108 300 166 206
103 352 194 466 287 105 86 235 220 307 316 38 50 74 92 79 92 36 0 7 -113
-71 -275 -104 -217 -278 -413 -525 -591 l-29 -22 53 -16 c210 -62 447 -32 637
81 195 116 358 338 416 568 21 82 23 112 22 335 0 260 -15 402 -70 677 -67
341 -90 399 -140 365z"/>
</g>
</svg>
