<?xml version="1.0" standalone="no"?>
<!DOCTYPE svg PUBLIC "-//W3C//DTD SVG 20010904//EN"
 "http://www.w3.org/TR/2001/REC-SVG-20010904/DTD/svg10.dtd">
<svg version="1.0" xmlns="http://www.w3.org/2000/svg"
 width="24" height="24" viewBox="0 0 500.000000 500.000000"
 preserveAspectRatio="xMidYMid meet">

<g transform="translate(0.000000,500.000000) scale(0.100000,-0.100000)"
fill="#000000" stroke="none">
<path d="M2424 4986 c-120 -53 -190 -220 -151 -362 l14 -52 -71 -4 c-74 -4
-146 -30 -146 -53 0 -7 22 -29 50 -49 68 -49 70 -67 21 -169 -89 -180 -71
-319 51 -407 59 -43 68 -40 68 23 0 63 30 131 88 200 44 52 67 106 59 139 -5
17 1 15 29 -13 35 -34 74 -120 74 -164 0 -19 5 -25 23 -25 31 0 84 34 92 60
10 32 27 20 58 -40 25 -48 28 -65 26 -130 -1 -41 -1 -78 0 -82 2 -16 102 55
136 96 59 72 85 142 86 229 2 157 -72 291 -251 458 -132 124 -170 186 -178
291 -5 76 -14 82 -78 54z"/>
<path d="M2256 3730 c-31 -10 -63 -35 -77 -61 -4 -9 -18 -77 -29 -150 -32
-207 -169 -1148 -175 -1204 -3 -27 -8 -72 -11 -100 -8 -73 -245 -1686 -261
-1772 l-5 -33 -72 0 c-118 0 -130 -22 -124 -232 2 -98 7 -130 21 -151 l17 -27
960 0 960 0 17 27 c14 21 19 53 21 151 6 210 -6 232 -124 232 l-72 0 -5 33
c-23 126 -264 1783 -271 1852 -6 66 -123 884 -176 1225 -34 218 -28 214 -335
217 -126 1 -243 -2 -259 -7z m354 -247 c0 -5 9 -64 19 -133 18 -120 18 -126 1
-140 -10 -8 -84 -71 -165 -139 -80 -68 -148 -121 -150 -119 -3 2 2 47 11 99
14 89 64 426 64 435 0 7 220 4 220 -3z m81 -555 c7 -31 74 -508 71 -508 -2 0
-60 42 -129 93 -69 50 -149 108 -177 128 -28 20 -51 42 -51 50 0 21 281 254
286 237z m-317 -526 c205 -148 255 -187 256 -195 0 -4 -10 -12 -22 -16 -13 -5
-115 -70 -227 -145 -113 -74 -207 -134 -209 -131 -2 2 3 57 12 122 9 65 18
137 20 160 8 83 39 293 44 293 2 0 59 -40 126 -88z m496 -742 c28 -195 53
-368 56 -384 6 -26 0 -24 -97 50 -129 97 -491 374 -502 384 -4 4 88 68 205
142 278 176 283 178 285 170 1 -4 25 -167 53 -362z m-699 -139 c24 -16 65 -47
91 -68 50 -41 416 -325 462 -359 l29 -21 -97 -69 c-53 -38 -141 -101 -194
-141 -381 -283 -489 -359 -497 -351 -2 2 23 183 55 403 33 220 67 453 76 518
10 64 20 117 24 117 3 0 26 -13 51 -29z m843 -836 c19 -126 33 -231 31 -233
-1 -1 -165 -1 -365 0 l-364 3 188 135 c104 74 252 181 330 237 77 56 142 99
143 95 2 -4 18 -110 37 -237z"/>
</g>
</svg>
