<?xml version="1.0" standalone="no"?>
<!DOCTYPE svg PUBLIC "-//W3C//DTD SVG 20010904//EN"
 "http://www.w3.org/TR/2001/REC-SVG-20010904/DTD/svg10.dtd">
<svg version="1.0" xmlns="http://www.w3.org/2000/svg"
 width="32pt" height="32pt" viewBox="0 0 512.000000 512.000000"
 preserveAspectRatio="xMidYMid meet">

<g transform="translate(0.000000,512.000000) scale(0.100000,-0.100000)"
fill="#ee862c" stroke="none">
<path d="M1265 4246 c-100 -32 -180 -93 -236 -178 -73 -113 -69 -25 -69 -1663
0 -1060 3 -1472 11 -1488 6 -12 21 -30 33 -39 20 -16 89 -18 1024 -18 l1004 0
29 29 29 29 0 716 0 716 65 0 c39 0 78 -6 95 -15 61 -31 60 -24 60 -594 0
-481 1 -524 19 -580 38 -122 115 -210 230 -265 62 -29 73 -31 176 -31 103 0
114 2 178 32 121 58 208 168 236 301 15 70 16 1895 1 1973 -23 121 -45 150
-390 494 l-320 320 -45 0 c-58 0 -94 -33 -102 -94 l-6 -42 169 -169 c92 -93
166 -171 163 -173 -2 -2 -33 -17 -69 -34 -157 -72 -249 -230 -238 -407 12
-180 125 -323 296 -376 102 -32 209 -24 325 25 17 7 17 -28 15 -741 -3 -745
-3 -749 -25 -789 -40 -76 -106 -116 -186 -116 -65 0 -103 14 -146 54 -73 69
-71 46 -71 677 0 347 -4 579 -10 601 -16 56 -51 101 -100 129 -41 23 -58 25
-182 28 l-137 4 -3 691 -3 692 -32 68 c-42 89 -116 166 -201 208 l-67 34 -740
2 c-577 1 -749 -1 -780 -11z m1353 -422 c49 -34 52 -53 52 -359 0 -236 -3
-291 -15 -315 -32 -61 -20 -60 -627 -60 -595 0 -582 -1 -622 53 -20 27 -21 40
-21 315 0 158 3 300 8 315 4 15 22 36 40 47 31 19 53 20 597 20 496 0 568 -2
588 -16z m1177 -525 c56 -16 129 -91 145 -148 34 -127 -55 -258 -184 -269 -66
-5 -117 10 -163 51 -171 150 -18 427 202 366z"/>
</g>
</svg>
