<?xml version="1.0" standalone="no"?>
<!DOCTYPE svg PUBLIC "-//W3C//DTD SVG 20010904//EN"
 "http://www.w3.org/TR/2001/REC-SVG-20010904/DTD/svg10.dtd">
<svg version="1.0" xmlns="http://www.w3.org/2000/svg"
 width="32pt" height="32pt" viewBox="0 0 1024.000000 1024.000000"
 preserveAspectRatio="xMidYMid meet">

<g transform="translate(0.000000,1024.000000) scale(0.100000,-0.100000)"
fill="#2874A6" stroke="none">
<path d="M2253 7899 c-42 -12 -89 -60 -97 -100 -3 -17 -6 -218 -6 -445 l0
-414 -177 0 c-196 0 -242 -8 -273 -47 -20 -25 -20 -35 -20 -839 l0 -814 -271
0 -271 0 -29 -29 c-20 -20 -29 -39 -29 -61 0 -34 50 -222 221 -829 224 -794
228 -806 296 -858 68 -52 170 -67 254 -38 24 9 156 76 294 150 420 225 499
255 695 262 206 9 288 -17 692 -221 242 -122 334 -156 497 -186 130 -24 319
-5 464 47 40 14 180 81 313 149 343 176 457 214 637 214 171 0 288 -39 617
-205 124 -62 272 -129 328 -149 309 -107 556 -86 869 76 492 254 559 278 787
278 202 0 342 -48 641 -218 93 -53 187 -105 210 -114 78 -33 147 -18 203 46
49 56 10 -34 502 1151 89 215 196 469 237 565 42 96 78 192 81 213 5 43 -11
82 -43 100 -14 9 -202 13 -680 17 -580 4 -660 7 -656 20 2 8 6 72 9 141 6 161
-12 252 -72 374 -148 300 -445 461 -799 433 -198 -15 -402 -121 -527 -272
-171 -207 -225 -447 -159 -705 23 -91 84 -218 139 -289 22 -29 40 -55 40 -57
0 -7 -606 -6 -612 1 -4 3 20 45 52 92 242 360 181 802 -147 1063 -86 69 -141
99 -246 134 -267 89 -580 22 -783 -168 -113 -105 -186 -223 -226 -364 -28
-101 -31 -292 -5 -398 22 -86 91 -231 146 -304 23 -30 41 -56 41 -57 0 -8
-619 -3 -624 5 -3 5 1 14 9 21 27 22 112 164 138 231 41 102 57 185 57 294 0
125 -20 218 -65 314 -139 292 -404 461 -725 463 -212 1 -385 -69 -537 -219
-162 -158 -242 -365 -230 -597 9 -173 57 -309 158 -442 27 -36 49 -67 49 -70
0 -2 -114 -3 -252 -2 l-253 3 -5 816 c-5 887 -2 834 -61 865 -22 11 -73 14
-219 14 l-190 0 0 429 c0 243 -4 440 -9 454 -6 14 -27 38 -47 54 -36 27 -41
28 -168 30 -72 1 -145 -2 -163 -8z m377 -1834 l0 -265 -220 0 -220 0 0 265 0
265 220 0 220 0 0 -265z"/>
<path d="M2720 3361 c-117 -27 -215 -63 -350 -131 -166 -83 -580 -317 -608
-343 -72 -66 -84 -192 -26 -264 56 -69 141 -103 211 -84 21 6 144 72 273 146
407 235 502 274 665 275 131 0 235 -40 494 -190 327 -189 525 -254 776 -254
118 0 156 4 245 26 142 36 289 99 505 217 321 176 387 201 524 201 139 0 229
-32 472 -168 315 -176 472 -239 664 -269 252 -38 522 24 825 192 63 34 165 90
225 124 144 79 237 111 347 118 184 12 267 -22 708 -290 194 -118 217 -128
280 -129 160 -1 262 184 174 318 -34 52 -36 53 -311 210 -379 217 -493 268
-670 299 -116 20 -182 19 -300 -4 -145 -28 -219 -59 -533 -217 -342 -173 -411
-197 -575 -196 -195 1 -271 28 -685 243 -206 108 -321 151 -461 174 -115 18
-180 19 -282 0 -142 -25 -249 -67 -526 -208 -379 -192 -512 -232 -690 -207
-168 23 -243 52 -533 205 -313 167 -446 212 -643 220 -85 4 -129 1 -195 -14z"/>
</g>
</svg>
