<?xml version="1.0" standalone="no"?>
<!DOCTYPE svg PUBLIC "-//W3C//DTD SVG 20010904//EN"
 "http://www.w3.org/TR/2001/REC-SVG-20010904/DTD/svg10.dtd">
<svg version="1.0" xmlns="http://www.w3.org/2000/svg"
 width="32" height="32" viewBox="0 0 500.000000 500.000000"
 preserveAspectRatio="xMidYMid meet">

<g transform="translate(0.000000,500.000000) scale(0.100000,-0.100000)"
fill="#000000" stroke="none">
<path d="M2065 7671 c-71 -33 -70 -22 -73 -443 l-3 -378 -170 0 c-197 0 -231
-8 -254 -64 -13 -30 -15 -147 -15 -766 l0 -730 -229 0 c-126 0 -241 -4 -254
-9 -13 -5 -29 -23 -36 -39 -15 -35 -13 -45 59 -362 28 -124 80 -353 115 -510
141 -632 144 -643 205 -693 57 -48 164 -61 275 -31 62 15 219 84 475 206 80
39 192 86 250 106 105 36 105 36 280 37 154 0 185 -3 255 -23 104 -30 188 -65
370 -152 256 -124 427 -170 623 -170 190 0 345 45 597 174 281 144 398 179
595 179 192 0 300 -29 565 -155 355 -168 412 -183 670 -182 185 0 193 1 290
32 55 18 188 75 295 127 107 52 219 104 249 115 135 52 314 75 458 59 174 -19
249 -48 745 -289 73 -35 94 -41 123 -36 53 10 30 -37 313 636 477 1130 563
1340 560 1365 -3 20 -12 20 -754 23 l-751 2 -6 123 c-7 133 -23 206 -68 305
-138 305 -475 468 -821 397 -244 -50 -449 -243 -518 -485 -44 -158 -35 -357
24 -508 28 -72 88 -175 124 -214 l26 -28 -343 0 -344 0 45 48 c80 85 145 221
168 348 20 112 9 281 -25 382 -61 180 -199 330 -378 412 -107 48 -192 63 -336
58 -104 -4 -140 -10 -206 -32 -219 -75 -372 -235 -441 -461 -26 -85 -26 -332
-1 -425 23 -83 86 -210 137 -277 l40 -53 -340 0 -341 0 50 65 c58 75 110 181
137 275 25 89 25 300 1 385 -69 237 -238 417 -462 492 -72 24 -95 27 -225 27
-137 1 -149 -1 -231 -30 -305 -109 -488 -395 -466 -729 11 -157 68 -316 157
-432 l40 -53 -220 0 -220 0 0 723 c0 464 -4 735 -10 759 -6 20 -22 46 -37 58
-24 18 -39 20 -209 20 l-184 0 0 363 c0 331 -2 365 -19 403 -26 56 -72 74
-194 74 -68 0 -102 -5 -132 -19z m355 -1536 l0 -215 -215 0 -215 0 0 215 0
215 215 0 215 0 0 -215z m5228 -477 c-8 -13 -54 -90 -102 -173 -49 -82 -95
-160 -102 -172 -11 -17 -24 -23 -50 -23 -20 0 -34 4 -32 9 2 5 32 92 68 195
l65 186 84 0 83 0 -14 -22z"/>
<path d="M2586 3579 c-160 -23 -241 -56 -631 -253 -339 -171 -345 -175 -345
-273 0 -62 17 -100 60 -137 44 -37 104 -51 162 -37 26 6 180 76 344 156 319
158 396 185 518 185 154 -1 258 -39 529 -194 200 -115 291 -157 407 -186 265
-68 519 -44 775 74 39 18 126 66 195 108 256 155 369 198 524 198 148 0 241
-34 516 -188 102 -57 214 -116 250 -132 179 -78 380 -109 568 -89 204 22 317
64 577 215 295 172 385 202 574 191 123 -6 175 -25 461 -165 332 -162 365
-175 432 -175 45 0 65 5 97 26 94 62 108 201 29 274 -35 33 -678 336 -778 368
-119 37 -283 52 -403 37 -190 -24 -296 -64 -557 -212 -272 -153 -375 -189
-548 -190 -166 0 -294 43 -542 181 -191 107 -291 154 -395 184 -166 48 -297
56 -451 30 -162 -28 -280 -78 -530 -223 -229 -133 -346 -172 -519 -172 -170 0
-294 42 -530 179 -341 199 -545 256 -789 220z"/>
</g>
</svg>
