<?xml version="1.0" standalone="no"?>
<!DOCTYPE svg PUBLIC "-//W3C//DTD SVG 20010904//EN"
 "http://www.w3.org/TR/2001/REC-SVG-20010904/DTD/svg10.dtd">
<svg version="1.0" xmlns="http://www.w3.org/2000/svg"
 width="16pt" height="16pt" viewBox="0 0 512.000000 512.000000"
 preserveAspectRatio="xMidYMid meet">

<g transform="translate(0.000000,512.000000) scale(0.100000,-0.100000)"
fill="#008639" stroke="none">
<path d="M1762 4785 c-61 -27 -94 -58 -119 -112 -48 -105 -17 -217 79 -280
l42 -28 796 0 796 0 42 28 c23 15 54 46 69 69 24 36 28 52 28 113 0 95 -35
156 -114 197 l-53 28 -767 0 c-644 -1 -771 -3 -799 -15z"/>
<path d="M1900 3990 l0 -220 293 2 292 3 0 70 0 70 -98 5 c-83 4 -101 8 -113
24 -18 26 -18 66 2 94 15 22 18 22 274 22 l259 0 20 -26 c26 -33 26 -54 1 -87
-19 -24 -28 -26 -108 -29 l-87 -3 0 -70 0 -70 293 -3 292 -2 0 220 0 220 -660
0 -660 0 0 -220z"/>
<path d="M1632 3604 c-187 -50 -343 -211 -381 -392 -6 -31 -11 -168 -11 -332
l0 -280 258 0 258 0 26 53 c55 112 173 242 291 320 287 191 670 194 957 9 136
-88 237 -197 301 -324 l29 -58 260 0 260 0 0 238 c0 270 -10 337 -64 447 -80
161 -228 280 -398 320 -92 21 -1706 21 -1786 -1z"/>
<path d="M2385 2954 c-33 -8 -103 -35 -155 -61 -79 -39 -109 -61 -180 -133
-98 -98 -140 -164 -183 -287 -29 -81 -31 -98 -32 -223 0 -142 8 -186 53 -295
54 -134 170 -268 296 -344 31 -18 95 -47 143 -64 114 -39 269 -48 390 -22 365
79 619 432 573 799 -38 306 -251 551 -544 626 -95 24 -269 26 -361 4z m228
-128 c56 -24 167 -161 167 -205 0 -45 -26 -71 -70 -71 -37 0 -43 5 -91 65 -28
36 -54 65 -58 65 -7 0 -241 -344 -241 -354 0 -2 30 -7 66 -11 81 -8 107 -29
102 -82 -2 -25 -11 -42 -29 -56 -25 -18 -34 -18 -169 -9 -107 8 -146 15 -160
27 -12 10 -31 67 -51 151 -31 125 -32 137 -18 162 11 21 24 28 53 30 46 4 81
-23 90 -71 6 -30 11 -24 130 154 107 161 130 188 163 202 48 20 75 21 116 3z
m446 -312 c46 -59 7 -124 -74 -124 -25 0 -45 -2 -45 -5 0 -2 54 -86 120 -185
109 -165 120 -185 120 -227 0 -54 -23 -106 -56 -128 -61 -40 -236 -43 -275 -4
-24 24 -24 70 0 100 17 21 30 24 99 27 l80 4 -95 147 c-53 80 -101 152 -108
160 -10 11 -16 4 -29 -37 -21 -61 -37 -76 -83 -76 -41 0 -73 31 -73 72 0 43
70 256 93 280 19 21 28 22 163 22 142 0 143 0 163 -26z m-905 -364 c29 -28 24
-74 -10 -118 -17 -20 -34 -43 -38 -49 -6 -10 42 -13 224 -13 l232 0 -22 33
c-11 17 -26 42 -32 55 -26 52 33 116 89 97 40 -15 183 -218 183 -261 0 -23
-20 -57 -80 -137 -78 -103 -82 -107 -119 -107 -73 0 -98 68 -47 134 l27 36
-246 0 c-267 0 -293 4 -333 55 -53 67 -47 137 20 223 65 84 105 97 152 52z"/>
<path d="M1240 2230 l0 -220 236 0 c198 0 235 2 231 14 -26 68 -32 270 -11
389 l7 37 -232 0 -231 0 0 -220z"/>
<path d="M3424 2413 c21 -119 15 -321 -11 -389 -4 -12 33 -14 231 -14 l236 0
0 220 0 220 -231 0 -232 0 7 -37z"/>
<path d="M1240 1543 c0 -351 6 -401 60 -502 64 -120 168 -208 297 -253 l68
-23 865 0 c962 0 890 -5 1035 68 81 40 202 162 244 246 63 124 71 181 71 498
l0 283 -260 0 -260 0 -19 -37 c-50 -99 -173 -236 -271 -303 -355 -241 -821
-204 -1121 90 -67 66 -179 217 -179 241 0 5 -119 9 -265 9 l-265 0 0 -317z"/>
<path d="M3315 618 c-60 -4 -453 -7 -873 -6 l-762 3 0 -60 c0 -69 23 -126 66
-168 66 -65 19 -62 792 -65 500 -2 715 1 745 9 55 15 131 89 146 144 12 45 15
156 4 154 -5 -1 -57 -6 -118 -11z"/>
</g>
</svg>
