<?xml version="1.0" standalone="no"?>
<!DOCTYPE svg PUBLIC "-//W3C//DTD SVG 20010904//EN"
 "http://www.w3.org/TR/2001/REC-SVG-20010904/DTD/svg10.dtd">
<svg version="1.0" xmlns="http://www.w3.org/2000/svg"
 width="24pt" height="24pt" viewBox="0 0 512.000000 512.000000"
 preserveAspectRatio="xMidYMid meet">

<g transform="translate(0.000000,512.000000) scale(0.100000,-0.100000)"
fill="#00FFFF" stroke="none">
<path d="M2516 4594 c-25 -25 -19 -49 29 -122 78 -117 82 -216 14 -325 -69
-110 -74 -123 -74 -232 0 -96 1 -103 36 -165 29 -52 41 -66 63 -68 54 -7 74
44 37 96 -31 45 -44 101 -38 163 4 47 14 73 53 135 97 155 97 295 2 442 -58
89 -90 109 -122 76z"/>
<path d="M2927 4592 c-26 -28 -21 -47 27 -118 77 -112 83 -216 18 -321 -75
-122 -77 -130 -77 -238 0 -95 2 -103 34 -163 35 -65 67 -86 100 -65 26 17 24
50 -8 115 -50 99 -42 169 31 282 89 138 89 291 1 426 -66 102 -93 119 -126 82z"/>
<path d="M3337 4592 c-25 -28 -21 -46 27 -116 50 -73 72 -152 62 -220 -4 -23
-29 -80 -56 -127 -62 -104 -73 -144 -68 -239 7 -113 66 -216 119 -208 12 2 28
12 35 23 12 18 10 28 -18 80 -21 40 -32 77 -35 119 -4 54 -1 68 27 121 89 166
93 174 98 244 6 96 -23 190 -86 273 -50 67 -78 80 -105 50z"/>
<path d="M2485 3466 c-17 -12 -20 -34 -26 -197 -8 -206 -28 -375 -65 -557 -26
-129 -89 -352 -122 -437 -19 -49 -19 -49 -26 -20 -16 78 -36 254 -42 380 -5
104 -11 145 -22 158 -14 16 -46 17 -407 17 -460 0 -425 10 -425 -116 0 -273
-66 -610 -171 -881 -112 -286 -316 -593 -504 -758 l-65 -57 -2 -192 -3 -191
-35 -3 c-57 -5 -76 -46 -40 -82 20 -20 33 -20 2030 -20 1997 0 2010 0 2030 20
36 36 17 77 -40 82 l-35 3 -5 255 -5 256 -45 39 c-187 162 -390 421 -532 680
-235 429 -357 891 -384 1455 -5 108 -10 149 -22 163 -14 16 -51 17 -517 17
-410 0 -505 -3 -520 -14z m963 -273 c31 -483 139 -894 338 -1293 140 -279 304
-511 506 -714 l118 -118 0 -229 0 -229 -1405 0 -1405 0 0 231 0 230 103 102
c431 427 730 1048 826 1722 16 110 41 400 41 472 0 10 90 13 433 13 l433 0 12
-187z m-1344 -608 c8 -140 25 -270 57 -422 25 -121 26 -118 -78 -308 -137
-249 -292 -455 -475 -630 l-113 -108 -3 -254 -3 -253 -389 0 -390 0 0 167 0
166 108 111 c59 61 133 146 165 188 271 363 439 842 463 1323 3 66 7 126 10
133 2 9 76 12 322 12 l319 0 7 -125z"/>
</g>
</svg>
