<?xml version="1.0" standalone="no"?>
<!DOCTYPE svg PUBLIC "-//W3C//DTD SVG 20010904//EN"
 "http://www.w3.org/TR/2001/REC-SVG-20010904/DTD/svg10.dtd">
<svg version="1.0" xmlns="http://www.w3.org/2000/svg"
 width="24pt" height="24pt" viewBox="0 0 4000.000000 4000.000000"
 preserveAspectRatio="xMidYMid meet">

<g transform="translate(0.000000,4000.000000) scale(0.100000,-0.100000)"
fill="#3e54ea" stroke="none">
<path d="M21485 35299 c-574 -46 -1130 -217 -1625 -502 -819 -471 -1445 -1241
-1738 -2137 -115 -352 -174 -687 -188 -1065 -6 -141 -4 -181 10 -235 57 -224
242 -371 466 -370 36 0 84 5 107 10 110 26 229 111 292 208 58 91 71 148 81
367 24 504 146 924 391 1348 161 277 428 587 684 792 429 343 943 558 1491
621 191 22 575 15 754 -14 824 -135 1524 -586 1976 -1272 296 -450 446 -923
474 -1493 10 -218 22 -268 85 -362 139 -206 418 -271 635 -147 25 14 104 82
175 151 198 192 346 298 570 406 791 386 1731 241 2377 -365 279 -261 499
-631 592 -995 65 -252 59 -68 65 -2310 l6 -2040 22 -57 c49 -129 129 -217 248
-274 158 -75 324 -64 472 33 83 55 146 136 187 242 l21 56 0 2025 c0 2243 4
2105 -65 2430 -98 461 -306 901 -605 1275 -103 130 -342 369 -473 473 -466
372 -1034 603 -1631 662 -133 13 -449 13 -582 0 -400 -40 -830 -168 -1157
-347 -46 -24 -86 -43 -88 -40 -3 2 -16 47 -30 98 -178 672 -584 1341 -1099
1812 -620 566 -1322 892 -2150 998 -182 23 -569 33 -750 18z"/>
<path d="M14400 32679 c-66 -11 -167 -57 -223 -101 -59 -47 -122 -138 -149
-215 -21 -61 -23 -84 -21 -230 5 -543 163 -1110 444 -1589 144 -246 303 -450
513 -659 330 -328 708 -568 1131 -719 72 -26 138 -50 148 -54 11 -5 35 -59 71
-167 207 -609 563 -1104 1071 -1485 862 -647 2030 -767 2998 -308 l109 52 22
-25 c11 -14 58 -70 103 -125 105 -129 368 -386 508 -497 513 -409 1116 -665
1775 -752 147 -20 536 -28 690 -15 847 73 1612 431 2217 1038 604 606 983
1418 1062 2277 7 75 17 123 31 151 11 23 28 76 37 119 52 258 -136 515 -407
556 -140 21 -275 -4 -377 -70 -152 -99 -222 -240 -223 -446 -1 -382 -115 -857
-292 -1208 -257 -512 -669 -932 -1169 -1191 -254 -131 -495 -208 -819 -260
-110 -18 -346 -26 -480 -16 -642 45 -1199 299 -1656 754 -196 196 -307 338
-444 571 -64 108 -136 180 -221 222 -167 82 -336 66 -497 -45 -168 -114 -216
-145 -307 -191 -183 -94 -370 -157 -595 -198 -133 -25 -485 -24 -620 0 -213
39 -387 96 -565 184 -409 204 -730 528 -936 948 -84 173 -138 329 -180 522
-39 183 -72 256 -149 332 -74 73 -156 113 -290 141 -607 128 -1125 509 -1442
1061 -191 330 -287 671 -308 1082 -6 140 -13 195 -29 239 -25 73 -81 158 -135
204 -57 50 -168 101 -246 114 -73 11 -74 11 -150 -1z"/>
<path d="M25470 22610 l0 -1730 4080 0 4080 0 0 1730 0 1730 -4080 0 -4080 0
0 -1730z"/>
<path d="M7210 14292 l0 -8652 -1714 0 c-1688 0 -1715 0 -1779 -20 -286 -89
-418 -414 -275 -682 61 -114 189 -211 314 -238 34 -7 5023 -9 16274 -8 l16225
3 57 23 c125 51 233 159 279 281 26 70 35 188 20 263 -36 171 -176 319 -345
364 -42 11 -355 14 -1828 14 l-1778 0 0 7160 0 7160 -3110 0 -3110 0 0 -7160
0 -7160 -482 2 -483 3 -3 4530 -4 4530 -4316 4110 c-2374 2261 -4320 4112
-4324 4113 -4 2 -8 -1988 -8 -4422 0 -2434 -3 -4426 -6 -4426 -3 0 -94 82
-202 183 -144 134 -5657 5224 -9374 8655 l-28 26 0 -8652z m2430 2316 c155
-37 291 -177 335 -343 13 -53 15 -631 15 -5342 l0 -5283 -475 0 -475 0 0 5283
c0 4711 2 5289 15 5342 44 166 178 304 335 343 90 23 153 23 250 0z m9530 11
c93 -14 180 -58 251 -126 70 -67 104 -119 130 -204 19 -59 19 -198 19 -5355
l0 -5294 -472 2 -473 3 -3 5255 c-1 3192 1 5279 7 5315 33 213 187 369 399
405 67 11 70 11 142 -1z"/>
</g>
</svg>
